<svg width="55" height="46" viewBox="0 0 55 46" fill="none" xmlns="http://www.w3.org/2000/svg">
<g clip-path="url(#clip0_540_813)">
<g clip-path="url(#clip1_540_813)">
<path d="M23.0002 17.748L22.2832 17.011C20.6002 15.281 17.5142 15.878 16.4002 18.053C15.8772 19.076 15.7592 20.553 16.7142 22.438C17.6342 24.253 19.5482 26.427 23.0002 28.795C26.4522 26.427 28.3652 24.253 29.2862 22.438C30.2412 20.552 30.1242 19.076 29.6002 18.053C28.4862 15.878 25.4002 15.28 23.7172 17.01L23.0002 17.748ZM23.0002 30C7.6672 19.868 18.2792 11.96 22.8242 16.143C22.8842 16.198 22.9432 16.255 23.0002 16.314C23.0566 16.2551 23.1153 16.1984 23.1762 16.144C27.7202 11.958 38.3332 19.867 23.0002 30Z" fill="#23A6F0"/>
</g>
<path d="M36.5631 18.612H39.6111V27H38.2671V19.872H36.5631V18.612Z" fill="#23A6F0"/>
</g>
<defs>
<clipPath id="clip0_540_813">
<rect width="56" height="46" fill="white" transform="translate(0.000305176)"/>
</clipPath>
<clipPath id="clip1_540_813">
<rect width="16" height="16" fill="white" transform="translate(15.0003 15)"/>
</clipPath>
</defs>
</svg>
